<?xml version="1.0" encoding="UTF-8" ?>
<!DOCTYPE svg PUBLIC "-//W3C//DTD SVG 1.1//EN" "http://www.w3.org/Graphics/SVG/1.1/DTD/svg11.dtd">
<svg width="170pt" height="178pt" viewBox="0 0 170 178" version="1.1" xmlns="http://www.w3.org/2000/svg">
<g id="#ffffffff">
<path fill="#ffffff" opacity="1.00" d=" M 0.00 0.00 L 170.00 0.00 L 170.00 178.00 L 0.00 178.00 L 0.00 0.00 M 18.16 18.93 C 18.04 69.27 18.10 119.61 18.13 169.95 C 38.56 169.81 58.99 169.95 79.42 169.87 C 79.41 152.40 79.42 134.92 79.41 117.45 C 79.40 99.45 79.43 81.46 79.37 63.47 C 79.37 45.68 79.38 27.90 79.41 10.11 C 63.29 10.10 47.16 10.06 31.04 10.13 C 26.51 12.67 22.49 16.05 18.16 18.93 M 85.38 14.24 C 84.97 30.49 85.35 46.76 85.19 63.01 C 85.31 64.48 84.78 66.59 86.50 67.32 C 96.98 73.85 107.35 80.56 117.72 87.26 C 119.43 88.81 121.23 86.82 122.75 86.03 C 136.37 77.17 150.37 68.92 163.95 60.02 C 139.66 43.44 115.42 26.79 91.25 10.03 C 89.28 11.42 87.14 12.60 85.38 14.24 M 85.49 113.83 C 85.22 132.52 85.44 151.22 85.38 169.92 C 88.15 169.75 91.39 170.76 93.69 168.76 C 116.65 152.29 139.76 136.05 162.82 119.72 C 164.80 118.50 164.05 115.94 164.21 114.02 C 164.02 97.64 164.47 81.24 163.98 64.88 C 137.68 80.96 111.72 97.62 85.49 113.83 Z" />
</g>
<g id="#ef8803ff">
<path fill="#ef8803" opacity="1.00" d=" M 18.16 18.93 C 22.49 16.05 26.51 12.67 31.04 10.13 C 47.16 10.06 63.29 10.10 79.41 10.11 C 79.38 27.90 79.37 45.68 79.37 63.47 C 68.10 58.58 57.74 51.85 46.94 46.04 C 41.63 43.32 36.72 39.81 31.10 37.74 C 30.90 41.14 30.81 44.56 30.86 47.97 C 31.05 80.05 30.64 112.14 31.02 144.21 C 35.96 142.42 40.18 139.22 44.76 136.73 C 53.28 131.99 61.61 126.93 70.05 122.08 C 73.02 120.24 76.14 118.67 79.41 117.45 C 79.42 134.92 79.41 152.40 79.42 169.87 C 58.99 169.95 38.56 169.81 18.13 169.95 C 18.10 119.61 18.04 69.27 18.16 18.93 Z" />
</g>
<g id="#27dbc9ff">
<path fill="#27dbc9" opacity="1.00" d=" M 85.38 14.24 C 87.14 12.60 89.28 11.42 91.25 10.03 C 91.41 28.25 91.17 46.47 91.34 64.68 C 101.53 72.21 112.84 78.12 122.75 86.03 C 121.23 86.82 119.43 88.81 117.72 87.26 C 107.35 80.56 96.98 73.85 86.50 67.32 C 84.78 66.59 85.31 64.48 85.19 63.01 C 85.35 46.76 84.97 30.49 85.38 14.24 Z" />
</g>
<g id="#48f8e6ff">
<path fill="#48f8e6" opacity="1.00" d=" M 91.25 10.03 C 115.42 26.79 139.66 43.44 163.95 60.02 C 150.37 68.92 136.37 77.17 122.75 86.03 C 112.84 78.12 101.53 72.21 91.34 64.68 C 91.17 46.47 91.41 28.25 91.25 10.03 Z" />
</g>
<g id="#f9a21cff">
<path fill="#f9a21c" opacity="1.00" d=" M 31.10 37.74 C 36.72 39.81 41.63 43.32 46.94 46.04 C 57.74 51.85 68.10 58.58 79.37 63.47 C 79.43 81.46 79.40 99.45 79.41 117.45 C 76.14 118.67 73.02 120.24 70.05 122.08 C 61.61 126.93 53.28 131.99 44.76 136.73 C 40.18 139.22 35.96 142.42 31.02 144.21 C 30.64 112.14 31.05 80.05 30.86 47.97 C 30.81 44.56 30.90 41.14 31.10 37.74 Z" />
</g>
<g id="#06c4b1ff">
<path fill="#06c4b1" opacity="1.00" d=" M 85.49 113.83 C 111.72 97.62 137.68 80.96 163.98 64.88 C 164.47 81.24 164.02 97.64 164.21 114.02 C 164.05 115.94 164.80 118.50 162.82 119.72 C 139.76 136.05 116.65 152.29 93.69 168.76 C 91.39 170.76 88.15 169.75 85.38 169.92 C 85.44 151.22 85.22 132.52 85.49 113.83 Z" />
</g>
</svg>
